<svg xmlns="http://www.w3.org/2000/svg" width="24" height="24" viewBox="0 0 48 48">
  <path fill="#4285F4" d="M24 9.5c3.54 0 6.72 1.22 9.22 3.6l6.85-6.85C35.9 2.6 30.47 0 24 0 14.7 0 6.44 5.4 2.57 13.22l7.98 6.2C12.43 13.04 17.74 9.5 24 9.5z"></path>
  <path fill="#34A853" d="M46.15 24.5c0-1.52-.15-2.98-.44-4.4H24v8.36h12.65c-.55 2.95-2.23 5.44-4.75 7.12l7.47 5.78C43.74 37.5 46.15 31.5 46.15 24.5z"></path>
  <path fill="#FBBC05" d="M10.55 28.42c-.48-1.42-.75-2.93-.75-4.42s.27-3 .75-4.42l-7.98-6.2C.9 16.85 0 20.33 0 24s.9 7.15 2.57 10.62l7.98-6.2z"></path>
  <path fill="#EA4335" d="M24 48c6.48 0 11.93-2.13 15.9-5.8l-7.47-5.78c-2.06 1.38-4.71 2.2-8.43 2.2-6.26 0-11.57-3.54-14.45-8.92l-7.98 6.2C6.44 42.6 14.7 48 24 48z"></path>
</svg>
